<svg xmlns="http://www.w3.org/2000/svg" version="1.0" width="1374" height="600">
  <g transform="translate(62.5,62.5)" fill="#f7b911">
    <path d="M300.94 207.56a96.04 96.04 0 0 0-15.88-24.06c-3.25-3.06-6.7-5.92-10.16-8.87-1.67-1.48-1.97-2.96-.39-4.34a78.49 78.49 0 0 0 20.31-26.33 90.71 90.71 0 0 0 7.2-26.62 66.95 66.95 0 0 0 0-15.09q-1.58-17.06-3.55-22.68-1.28-5.13-2.56-8.97c-10.85-27.8-35.8-46.54-51.97-56.2a136.37 136.37 0 0 0-15.28-6.12 161.02 161.02 0 0 0-27.6-6.3A145.14 145.14 0 0 0 180.14 0H0v82.33h175.12a77.3 77.3 0 0 1 17.16 1.98c7.49 1.57 13.9 4.73 17.45 12.02a36.09 36.09 0 0 1 2.17 11.34v8.29a19.42 19.42 0 0 1-5.52 10.45 33.52 33.52 0 0 1-20.9 7.4c-13.42.98-26.93.2-40.44.39H0v223.73h82.33c2.57 0 2.96-.99 2.96-3.26v-133.5c0-7.2 0-7.2 7.1-7.2h88.64a56.6 56.6 0 0 1 28.2 6.11.79.79 0 0 0 .5 0l2.86 2.66a28.6 28.6 0 0 1 7.5 31.36 27.8 27.8 0 0 1-9.67 12.52 48.12 48.12 0 0 1-25.44 8.09c-11.24.2-22.48 0-33.72 0-2.86 0-3.65.88-3.65 3.55v72.77c0 6.9 0 7.2 7 6.9a398.26 398.26 0 0 0 44.86-1.28q23.27-3.26 39.64-7.9a11.73 11.73 0 0 0 .7-.29 119.9 119.9 0 0 0 33.91-17.65 64.1 64.1 0 0 0 15.97-15.77 5.03 5.03 0 0 0 1-1A86.97 86.97 0 0 0 306.64 282a174.33 174.33 0 0 0 4.15-20.7 93.38 93.38 0 0 0-9.86-53.64zM140.8 78.88z"/>
    <path fill="#e75115" d="M338.4 326.47h54.33v-212.1H338.4zm27.02-235.16a31.06 31.06 0 0 0 30.86-31.56 31.45 31.45 0 0 0-30.86-32.14 31.75 31.75 0 0 0-31.26 32.04c0 17.56 14 31.56 31.26 31.56zm168.32 19.12c-64.1 0-116.06 48.91-116.06 109.75 0 60.64 51.96 109.45 116.06 109.45 64.09 0 116.05-48.81 116.05-109.45 0-60.84-51.96-109.75-116.05-109.75zm0 170.39a61.82 61.82 0 0 1-62.52-60.64c0-33.53 28.2-60.84 62.52-60.84a61.63 61.63 0 0 1 62.51 60.84 61.53 61.53 0 0 1-62.51 60.64zm388-170.39a97.62 97.62 0 0 0-66.36 26.92c-14.5-18.73-37.47-26.92-70.3-26.92a94.66 94.66 0 0 0-55.22 17.16v-13.21h-54.63v212.2h54.63V176.1a65.08 65.08 0 0 1 45.75-16.76c28.1 0 42.6 16.27 42.6 48.71v118.42h54.42V209.04c0-19.13-.4-27.02-2.36-32.84a58.57 58.57 0 0 1 42.3-16.76c29.58 0 46.05 15.97 46.05 48.71v118.42h54.23V208.25c0-68.73-28.5-97.72-91.01-97.72zm326.87 125.43c0-3.55.39-7.8.39-12.13 0-66.06-37.96-113.4-103.14-113.4-64.09 0-108.66 49.01-108.66 109.85 0 60.64 44.57 109.45 108.66 109.45 41.41 0 76.12-17.16 95.65-43.78l-34.71-28.9a68.04 68.04 0 0 1-54.73 26.24c-32.44 0-54.72-19.63-60.54-47.33zm-102.85-82.04c36.29 0 49.2 22.97 51.18 47.33h-105.11c5.03-26.23 25.34-47.33 53.93-47.33z"/>
    <path d="M117.63 425.86v-10.55h42.1v10.55h-15.47v47.93H133.2v-47.93zm50.68 25.25v-13.12c0-7.59 1.98-13.4 5.72-17.55 3.85-4.24 9.08-6.3 15.78-6.3 6.8 0 12.03 2.06 15.88 6.3A25.24 25.24 0 0 1 211.4 438v13.12c0 7.79-1.97 13.7-5.71 17.75a20.7 20.7 0 0 1-15.78 6.1c-6.8 0-12.03-1.96-15.78-6.1-3.94-4.05-5.82-9.96-5.82-17.75zm21.5 13.8c1.97 0 3.65-.3 5.03-.99a8.48 8.48 0 0 0 3.25-2.66 9.86 9.86 0 0 0 1.78-4.14c.3-1.67.5-3.45.5-5.42v-14.3c0-1.97-.2-3.65-.6-5.23-.3-1.57-.99-2.95-1.78-4.23a12.71 12.71 0 0 0-3.25-2.77 10.73 10.73 0 0 0-4.93-.98 9.07 9.07 0 0 0-8.09 3.84 16 16 0 0 0-1.87 4.14 28.6 28.6 0 0 0-.5 5.23v14.2c0 1.97.1 3.75.5 5.42.3 1.58.89 2.96 1.68 4.14a9.47 9.47 0 0 0 8.28 3.65zm29.58-13.8v-13.12c0-7.59 1.97-13.4 5.72-17.55 3.85-4.24 9.07-6.3 15.87-6.3 6.71 0 12.03 2.06 15.78 6.3a25.24 25.24 0 0 1 5.72 17.55v13.12c0 7.79-1.87 13.7-5.72 17.75a20.5 20.5 0 0 1-15.78 6.1 20.7 20.7 0 0 1-15.77-6.1c-3.95-4.05-5.82-9.96-5.82-17.75zm21.7 13.8c1.97 0 3.54-.3 4.92-.99a8.68 8.68 0 0 0 3.16-2.66 11.36 11.36 0 0 0 1.87-4.14c.3-1.67.5-3.45.5-5.42v-14.3c0-1.97-.2-3.65-.7-5.23-.3-1.57-.98-2.95-1.77-4.23a11.24 11.24 0 0 0-3.25-2.77 10.58 10.58 0 0 0-4.84-.98c-1.97 0-3.54.3-4.93.98a9.07 9.07 0 0 0-3.15 2.77 12.66 12.66 0 0 0-1.87 4.23 21.7 21.7 0 0 0-.6 5.23v14.2c0 1.97.2 3.75.5 5.42.4 1.58.98 2.96 1.77 4.14a9.47 9.47 0 0 0 8.28 3.65zm32.24 8.88V415.3h11.14v47.92h26.52v10.56zm70-8.88c2.17 0 3.95-.3 5.23-.99a7.89 7.89 0 0 0 3.16-2.56 9.76 9.76 0 0 0 1.57-3.75c.3-1.38.5-2.95.5-4.33v-1.68h10.94v1.58c0 6.9-1.77 12.32-5.52 16.07-3.55 3.75-8.87 5.62-15.78 5.62-6.7 0-12.03-1.97-15.87-6.11-3.95-4.05-5.92-9.96-5.92-17.75v-13.12c0-3.74.5-7 1.48-10.05a19.72 19.72 0 0 1 11.24-12.13 23.84 23.84 0 0 1 8.97-1.68c3.46 0 6.51.5 9.27 1.58a17.35 17.35 0 0 1 10.85 11.14 31.27 31.27 0 0 1 1.28 8.97v1.58H353.8v-1.48a14.99 14.99 0 0 0-2.27-7.88 7.89 7.89 0 0 0-3.16-2.77 10.46 10.46 0 0 0-4.93-.98c-1.97 0-3.55.3-4.93.98a10.35 10.35 0 0 0-5.22 7.1c-.4 1.58-.6 3.16-.6 4.93V452c0 1.77.2 3.54.6 5.12.4 1.58.98 2.96 1.77 4.14a8.87 8.87 0 0 0 3.35 2.66c1.38.7 2.96 1 4.93 1zm30.57 8.88V415.3h10.95v23.87h18.83V415.3h11.14v58.48h-11.14v-24.16h-18.74v24.06zm84.3 0-2.85-12.53h-19.92l-2.76 12.53h-11.54l13.9-58.48h20.71l14 58.48zm-13.5-52.95-6.9 29.87h15.18l-6.8-29.87zm32.34 4.93V415.3h39.05v10.55h-14v37.47h14v10.46h-39.05v-10.56h14v-37.46zm71.78-10.46 6.8 52.95h1.49v-52.95h11.04v58.48h-21.6l-6.9-52.95h-1.48v52.95h-10.94V415.3zm79.48 35.8v-13.12c0-7.59 1.97-13.4 5.72-17.55 3.94-4.24 9.17-6.3 15.87-6.3 6.7 0 12.03 2.06 15.78 6.3a25.24 25.24 0 0 1 5.72 17.55v13.12c0 7.79-1.88 13.7-5.72 17.75a20.5 20.5 0 0 1-15.78 6.1 20.7 20.7 0 0 1-15.78-6.1c-3.94-4.05-5.81-9.96-5.81-17.75zm21.69 13.8c1.97 0 3.55-.3 4.93-.99a8.48 8.48 0 0 0 3.25-2.66 9.86 9.86 0 0 0 1.78-4.14c.3-1.67.5-3.45.5-5.42v-14.3c0-1.97-.2-3.65-.6-5.23-.4-1.57-.99-2.95-1.87-4.23a11.24 11.24 0 0 0-3.26-2.77 10.3 10.3 0 0 0-4.83-.98c-1.97 0-3.55.3-4.93.98a9.07 9.07 0 0 0-3.16 2.77 12.66 12.66 0 0 0-1.87 4.23 28.6 28.6 0 0 0-.5 5.23v14.2c0 1.97.1 3.75.5 5.42.3 1.58.89 2.96 1.68 4.14a9.47 9.47 0 0 0 8.28 3.65zm32.83 8.88V415.3h37.47v10.55h-26.42v13.32h25.83v10.55h-25.83v24.06zm99.4-47.93v-10.55h42.1v10.55h-15.48v47.93H797.7v-47.93zm51.66 47.93V415.3h11.05v23.87h18.83V415.3h11.04v58.48h-11.04v-24.16h-18.74v24.06zm52.85 0V415.3h36.88v10.55h-25.83v13.32h24.94v10.55h-24.94v13.5h26.92v10.56zm145.94-58.48-2.07 58.48h-19.23l-2.66-44.38v-8.08h-1.98v8.08l-2.66 44.38h-19.23l-1.97-58.48h9.96l1.28 44.38v7.59h2.07v-7.6l2.67-44.37h17.74l2.67 44.38v7.59h1.97v-7.6l1.28-44.37zm7.4 58.48V415.3h36.97v10.55h-25.84v13.32h24.85v10.55h-24.95v13.5h26.82v10.56zm48.1 0v-10.56h5.63v-37.46h-5.62V415.3h25.64c2.86 0 5.32.4 7.4 1.19 2.16.79 3.93 1.87 5.41 3.15a12.82 12.82 0 0 1 3.36 4.74 16.07 16.07 0 0 1 1.18 6.1v1c0 3.35-.99 6-2.86 8.08a14.79 14.79 0 0 1-6.9 4.14v1.58c2.76.69 5.13 2.07 6.9 4.14 1.97 1.97 2.86 4.73 2.86 8.09v.98c0 2.17-.4 4.14-1.18 6.02a11.31 11.31 0 0 1-3.36 4.93 16.47 16.47 0 0 1-5.42 3.15 20.59 20.59 0 0 1-7.3 1.19zm16.57-24.06v13.5h8a9.86 9.86 0 0 0 5.71-1.47c1.48-.99 2.17-2.67 2.17-5.03v-.5c0-2.26-.7-3.94-2.17-4.93a9.66 9.66 0 0 0-5.72-1.57zm0-23.87v13.32h8a9.86 9.86 0 0 0 5.71-1.48c1.48-.99 2.17-2.57 2.17-4.93v-.5c0-2.36-.7-3.94-2.17-4.93a9.86 9.86 0 0 0-5.72-1.48z"/>
  </g>
</svg>