<svg xmlns="http://www.w3.org/2000/svg" width="500" height="500" version="1.0">
  <rect fill="black" width="500" height="500"/>
  <path fill="#f7b911" d="M397.3896 279A97.4 97.4 0 00381.2896 254.5L370.9896 245.5C369.2896 244 368.9896 242.5 370.5896 241.1A79.6 79.6 0 00391.1896 214.4 92 92 0 00398.4896 187.4 67.9 67.9 0 00398.4896 172.1Q396.8896 154.8 394.8896 149.1 393.5896 143.9 392.2896 140.1C381.2896 111.8 355.9896 92.8 339.5896 83.1A138.3 138.3 0 00324.0896 76.8 163.3 163.3 0 00296.0896 70.4 147.2 147.2 0 00274.8896 68.4H92.0896V152H269.6896A78.4 78.4 0 01287.0896 154C294.6896 155.6 301.0896 158.8 304.7896 166.2A36.6 36.6 0 01306.9896 177.7V186.1A19.7 19.7 0 01301.3896 196.7 34 34 0 01280.1896 204.2C266.5896 205.2 252.8896 204.4 239.1896 204.6H92.0896V431.6H175.5896C178.1896 431.6 178.5896 430.6 178.5896 428.2V292.7C178.5896 285.4 178.5896 285.4 185.7896 285.4H275.6896A57.4 57.4 0 01304.2896 291.6.8.8 0 00304.7896 291.6L307.6896 294.3A29 29 0 01315.2896 326.1 28.2 28.2 0 01305.4896 338.8 48.8 48.8 0 01279.6896 347C268.2896 347.2 256.8896 347 245.4896 347 242.4896 347 241.7896 348 241.7896 350.6V424.4C241.7896 431.4 241.7896 431.7 248.7896 431.4A403.9 403.9 0 00294.3896 430.1Q317.9896 426.8 334.5896 422.1A11.9 11.9 0 00335.2896 421.8 121.6 121.6 0 00369.6896 403.9 65 65 0 00385.8896 387.9 5.1 5.1 0 00386.8896 386.9 88.2 88.2 0 00403.0896 354.4 176.8 176.8 0 00407.2896 333.4 94.7 94.7 0 00397.2896 279ZM234.9896 148.3Z"/>
</svg>
