<svg xmlns="http://www.w3.org/2000/svg" data-name="biome-logo" viewBox="0 0 1336.5 432.8" version="1.0">
  <title>Biome</title>
  <path fill="#f7b911" d="M340.1 245.3A97.4 97.4 0 0 0 324 221l-10.3-9c-1.7-1.5-2-3-.4-4.4a79.6 79.6 0 0 0 20.6-26.7 92 92 0 0 0 7.3-27 67.9 67.9 0 0 0 0-15.3q-1.6-17.3-3.6-23-1.3-5.2-2.6-9c-11-28.3-36.3-47.3-52.7-57a138.3 138.3 0 0 0-15.5-6.3 163.3 163.3 0 0 0-28-6.4 147.2 147.2 0 0 0-21.2-2H34.9v83.5h177.6a78.4 78.4 0 0 1 17.4 2c7.6 1.6 14.1 4.8 17.7 12.2a36.6 36.6 0 0 1 2.2 11.5v8.4a19.7 19.7 0 0 1-5.6 10.6 34 34 0 0 1-21.2 7.5c-13.6 1-27.3.2-41 .4H34.9v227h83.5c2.6 0 3-1 3-3.4V259.1c0-7.3 0-7.3 7.2-7.3h89.9a57.4 57.4 0 0 1 28.6 6.2.8.8 0 0 0 .5 0l2.9 2.7a29 29 0 0 1 7.6 31.8 28.2 28.2 0 0 1-9.8 12.7 48.8 48.8 0 0 1-25.8 8.2c-11.4.2-22.8 0-34.2 0-2.9 0-3.7 1-3.7 3.6v73.8c0 7 0 7.3 7.1 7a403.9 403.9 0 0 0 45.5-1.3q23.6-3.3 40.2-8a11.9 11.9 0 0 0 .7-.3 121.6 121.6 0 0 0 34.4-17.9 65 65 0 0 0 16.2-16 5.1 5.1 0 0 0 1-1 88.2 88.2 0 0 0 16.2-32.5 176.8 176.8 0 0 0 4.2-21 94.7 94.7 0 0 0-10-54.4zM177.7 114.8Z"/>
  <path fill="#e75115" d="M378.1 366h55.1V150.7h-55.1Zm27.4-238.6a31.5 31.5 0 0 0 31.3-32 31.9 31.9 0 0 0-31.3-32.6 32.2 32.2 0 0 0-31.7 32.5c0 17.8 14.2 32 31.7 32zm170.7 19.4c-65 0-117.7 49.6-117.7 111.3 0 61.5 52.7 111 117.7 111s117.7-49.5 117.7-111c0-61.7-52.7-111.3-117.7-111.3Zm0 172.8a62.7 62.7 0 0 1-63.4-61.5c0-34 28.6-61.7 63.4-61.7a62.5 62.5 0 0 1 63.4 61.7 62.4 62.4 0 0 1-63.4 61.5zm393.5-172.8a99 99 0 0 0-67.3 27.3c-14.7-19-38-27.3-71.3-27.3a96 96 0 0 0-56 17.4v-13.4h-55.4V366h55.4V213.4a66 66 0 0 1 46.4-17c28.5 0 43.2 16.5 43.2 49.4V366h55.2V247c0-19.5-.4-27.5-2.4-33.4a59.4 59.4 0 0 1 42.9-17c30 0 46.7 16.2 46.7 49.4v120h55V246c0-69.7-28.9-99-92.3-99zM1301.2 274c0-3.6.4-7.9.4-12.3 0-67-38.5-115-104.6-115-65 0-110.2 49.7-110.2 111.4 0 61.5 45.2 111 110.2 111 42 0 77.2-17.4 97-44.4l-35.2-29.3a69 69 0 0 1-55.5 26.6c-32.9 0-55.5-19.9-61.4-48zm-104.3-83.2c36.8 0 49.9 23.3 51.9 48h-106.6c5.1-26.6 25.7-48 54.7-48z"/>
</svg>
