<?xml version="1.0" encoding="UTF-8"?><svg id="uuid-40d35180-75c1-482e-ba97-260182475ed6" xmlns="http://www.w3.org/2000/svg" viewBox="0 0 2000.2 512"><g id="uuid-6d2ef635-87bb-4ea2-9795-95e2b8b196ff"><path d="m567.92,496V132.23h151.61c27.18,0,49.96,3.87,68.36,11.6,18.39,7.73,32.23,18.52,41.5,32.35,9.28,13.84,13.92,29.87,13.92,48.1,0,13.84-2.89,26.17-8.67,36.99-5.78,10.83-13.76,19.82-23.93,26.98-10.17,7.16-21.93,12.13-35.28,14.89v3.91c14.65.49,28.2,4.36,40.65,11.6,12.45,7.24,22.46,17.3,30.03,30.15,7.57,12.86,11.35,28,11.35,45.41,0,19.53-4.92,36.99-14.77,52.37-9.85,15.38-24.17,27.47-42.97,36.25s-41.63,13.18-68.48,13.18h-163.33Zm87.65-214.11h48.83c9.6,0,18.1-1.62,25.51-4.88,7.4-3.25,13.22-7.85,17.46-13.79,4.23-5.94,6.35-13.22,6.35-21.85,0-12.04-4.31-21.61-12.94-28.69-8.63-7.08-20.26-10.62-34.91-10.62h-50.29v79.83Zm0,143.31h54.69c18.88,0,32.88-3.66,41.99-10.99,9.11-7.32,13.67-17.33,13.67-30.03,0-9.44-2.2-17.58-6.59-24.41s-10.62-12.12-18.68-15.87c-8.06-3.74-17.62-5.62-28.69-5.62h-56.4v86.91Z" style="fill:#360; stroke-width:0px;"/><path d="m928.7,191.8c-12.21,0-22.71-4.07-31.49-12.21-8.79-8.14-13.18-17.98-13.18-29.54s4.39-21.36,13.18-29.42,19.29-12.08,31.49-12.08,22.91,4.03,31.62,12.08c8.71,8.06,13.06,17.86,13.06,29.42s-4.36,21.4-13.06,29.54c-8.71,8.14-19.25,12.21-31.62,12.21Zm-43.21,304.2V223.05h86.91v272.95h-86.91Z" style="fill:#360; stroke-width:0px;"/><path d="m1135.37,501.13c-28.65,0-53.22-5.9-73.73-17.7-20.51-11.8-36.25-28.24-47.24-49.32-10.99-21.08-16.48-45.61-16.48-73.61s5.49-52.77,16.48-73.85c10.99-21.08,26.73-37.51,47.24-49.32,20.51-11.8,45.08-17.7,73.73-17.7s53.26,5.9,73.85,17.7c20.59,11.8,36.38,28.24,47.36,49.32,10.99,21.08,16.48,45.7,16.48,73.85s-5.49,52.53-16.48,73.61c-10.99,21.08-26.78,37.52-47.36,49.32-20.59,11.8-45.21,17.7-73.85,17.7Zm.49-66.16c10.58,0,19.45-3.09,26.61-9.28,7.16-6.18,12.65-14.93,16.48-26.25,3.82-11.31,5.74-24.45,5.74-39.43s-1.92-28.24-5.74-39.31c-3.83-11.07-9.32-19.65-16.48-25.76-7.16-6.1-16.03-9.16-26.61-9.16s-19.62,3.05-27.1,9.16c-7.49,6.1-13.1,14.69-16.85,25.76-3.75,11.07-5.62,24.17-5.62,39.31s1.87,28.12,5.62,39.43c3.74,11.31,9.36,20.06,16.85,26.25,7.48,6.19,16.52,9.28,27.1,9.28Z" style="fill:#360; stroke-width:0px;"/><path d="m1298.82,496V223.05h82.28v50.29h3.17c5.7-16.6,15.34-29.7,28.93-39.31,13.59-9.6,29.66-14.4,48.22-14.4s35.32,4.88,48.83,14.65c13.51,9.77,21.97,22.79,25.39,39.06h2.93c5.21-16.11,15.22-29.09,30.03-38.94,14.81-9.85,32.31-14.77,52.49-14.77,25.71,0,46.63,8.22,62.74,24.66,16.11,16.44,24.17,39.06,24.17,67.87v183.84h-86.91v-163.82c0-13.51-3.5-23.84-10.5-31.01-7-7.16-16.03-10.74-27.1-10.74-11.88,0-21.24,3.87-28.08,11.6-6.84,7.73-10.25,18.11-10.25,31.13v162.84h-83.5v-164.79c0-12.53-3.42-22.46-10.25-29.79s-15.87-10.99-27.1-10.99c-7.65,0-14.37,1.83-20.14,5.49-5.78,3.66-10.3,8.75-13.55,15.26-3.26,6.51-4.88,14.32-4.88,23.44v161.38h-86.91Z" style="fill:#360; stroke-width:0px;"/><path d="m1871.05,501.13c-28.65,0-53.31-5.65-73.97-16.97-20.67-11.31-36.5-27.47-47.49-48.46s-16.48-46.06-16.48-75.2,5.53-52.77,16.6-73.85c11.07-21.08,26.69-37.51,46.88-49.32,20.18-11.8,43.95-17.7,71.29-17.7,19.37,0,37.15,3.05,53.34,9.16,16.19,6.1,30.19,15.06,41.99,26.86,11.8,11.8,20.91,26.33,27.34,43.58,6.43,17.25,9.64,37.19,9.64,59.81v21.48h-237.06v-50.05h195.8l-40.53,11.72c0-12.53-1.87-23.23-5.62-32.1-3.75-8.87-9.28-15.75-16.6-20.63s-16.44-7.32-27.34-7.32-20.1,2.44-27.59,7.32c-7.49,4.88-13.18,11.68-17.09,20.39-3.91,8.71-5.86,19-5.86,30.88v35.89c0,12.7,2.24,23.68,6.71,32.96,4.47,9.28,10.82,16.4,19.04,21.36,8.22,4.97,17.7,7.45,28.44,7.45,7.48,0,14.32-1.06,20.51-3.17,6.18-2.11,11.47-5.25,15.87-9.4s7.73-9.16,10.01-15.01l79.59,2.2c-3.26,17.91-10.42,33.45-21.48,46.63-11.07,13.18-25.55,23.4-43.46,30.64-17.91,7.24-38.74,10.86-62.5,10.86Z" style="fill:#360; stroke-width:0px;"/><circle cx="256" cy="230.32" r="85.15" style="fill:#ffc905; stroke-width:0px;"/><path d="m421.83,160.7c8.3-26.64,1.92-56.86-19.18-77.96-21.1-21.1-51.32-27.48-77.96-19.18-12.97-24.7-38.85-41.56-68.69-41.56s-55.72,16.86-68.69,41.56c-26.64-8.3-56.86-1.92-77.96,19.18-21.1,21.1-27.48,51.32-19.18,77.96-24.7,12.97-41.56,38.85-41.56,68.69,0,42.83,34.72,77.55,77.55,77.55,9.53,0,18.99-1.59,28.2-4.3-35.38-48.97-31.03-117.75,13.06-161.84,48.93-48.93,128.25-48.93,177.18,0,44.09,44.09,48.44,112.87,13.06,161.84,9.21,2.71,18.67,4.3,28.2,4.3,42.83,0,77.55-34.72,77.55-77.55,0-29.84-16.86-55.72-41.56-68.69Z" style="fill:#ffc905; stroke-width:0px;"/><path d="m399.83,285.71c-73.91,0-143.83,85.9-143.83,85.9h0s0,0,0,0c0,0-69.92-85.9-143.83-85.9-47.44,0-85.9,38.46-85.9,85.9s38.46,85.9,85.9,85.9,93.73-35.78,120.39-61.15v92.21c0,12.95,10.5,23.44,23.44,23.44h0c12.95,0,23.44-10.5,23.44-23.44v-92.21c26.65,25.37,72.68,61.15,120.39,61.15s85.9-38.46,85.9-85.9-38.46-85.9-85.9-85.9Z" style="fill:#360; stroke-width:0px;"/><rect width="512" height="512" style="fill:none; stroke-width:0px;"/></g></svg>