<?xml version="1.0" encoding="UTF-8"?><svg id="uuid-328ff3e5-07a9-4015-aa59-6f67bd58500c" xmlns="http://www.w3.org/2000/svg" viewBox="0 0 600 600"><g id="uuid-1dcb0a32-3be2-4831-8ed9-29713519108d"><rect width="600" height="600" style="stroke-width:0px;"/></g><g id="uuid-897a0dac-1f1c-44c2-849e-017983c26362"><circle cx="300.08" cy="274.32" r="85.15" style="fill:#ffc905; stroke-width:0px;"/><path d="m465.91,204.7c8.3-26.64,1.92-56.86-19.18-77.96-21.1-21.1-51.32-27.48-77.96-19.18-12.97-24.7-38.85-41.56-68.69-41.56s-55.72,16.86-68.69,41.56c-26.64-8.3-56.86-1.92-77.96,19.18-21.1,21.1-27.48,51.32-19.18,77.96-24.7,12.97-41.56,38.85-41.56,68.69,0,42.83,34.72,77.55,77.55,77.55,9.53,0,18.99-1.59,28.2-4.3-35.38-48.97-31.03-117.75,13.06-161.84,48.93-48.93,128.25-48.93,177.18,0,44.09,44.09,48.44,112.87,13.06,161.84,9.21,2.71,18.67,4.3,28.2,4.3,42.83,0,77.55-34.72,77.55-77.55,0-29.84-16.86-55.72-41.56-68.69Z" style="fill:#ffc905; stroke-width:0px;"/><path d="m443.91,329.71c-73.91,0-143.83,85.9-143.83,85.9h0s0,0,0,0c0,0-69.92-85.9-143.83-85.9-47.44,0-85.9,38.46-85.9,85.9s38.46,85.9,85.9,85.9,93.73-35.78,120.39-61.15v92.21c0,12.95,10.5,23.44,23.44,23.44h0c12.95,0,23.44-10.5,23.44-23.44v-92.21c26.65,25.37,72.68,61.15,120.39,61.15s85.9-38.46,85.9-85.9-38.46-85.9-85.9-85.9Z" style="fill:#360; stroke-width:0px;"/></g></svg>