<svg width="16" height="11" viewBox="0 0 16 11" fill="none" xmlns="http://www.w3.org/2000/svg"><path fill-rule="evenodd" clip-rule="evenodd" d="M10.293 0.792787C10.4805 0.605316 10.7348 0.5 11 0.5C11.2652 0.5 11.5195 0.605316 11.707 0.792787L15.707 4.79279C15.8945 4.98031 15.9998 5.23462 15.9998 5.49979C15.9998 5.76495 15.8945 6.01926 15.707 6.20679L11.707 10.2068C11.5184 10.3889 11.2658 10.4897 11.0036 10.4875C10.7414 10.4852 10.4906 10.38 10.3052 10.1946C10.1198 10.0092 10.0146 9.75838 10.0123 9.49619C10.01 9.23399 10.1108 8.98139 10.293 8.79279L12.586 6.49979H1C0.734784 6.49979 0.48043 6.39443 0.292893 6.20689C0.105357 6.01936 0 5.765 0 5.49979C0 5.23457 0.105357 4.98022 0.292893 4.79268C0.48043 4.60514 0.734784 4.49979 1 4.49979H12.586L10.293 2.20679C10.1055 2.01926 10.0002 1.76495 10.0002 1.49979C10.0002 1.23462 10.1055 0.980314 10.293 0.792787Z" fill="#0065da"></path></svg>