<?xml version="1.0" encoding="utf-8"?><!-- Uploaded to: SVG Repo, www.svgrepo.com, Generator: SVG Repo Mixer Tools -->
<svg fill="#000000" width="800px" height="800px" viewBox="0 0 32 32" id="icon" xmlns="http://www.w3.org/2000/svg"><defs><style>.cls-1{fill:none;}</style></defs><title>JSON</title><polygon points="31 11 31 21 29 21 27 15 27 21 25 21 25 11 27 11 29 17 29 11 31 11"/><path d="M21.3335,21h-2.667A1.6684,1.6684,0,0,1,17,19.3335v-6.667A1.6684,1.6684,0,0,1,18.6665,11h2.667A1.6684,1.6684,0,0,1,23,12.6665v6.667A1.6684,1.6684,0,0,1,21.3335,21ZM19,19h2V13H19Z"/><path d="M13.3335,21H9V19h4V17H11a2.002,2.002,0,0,1-2-2V12.6665A1.6684,1.6684,0,0,1,10.6665,11H15v2H11v2h2a2.002,2.002,0,0,1,2,2v2.3335A1.6684,1.6684,0,0,1,13.3335,21Z"/><path d="M5.3335,21H2.6665A1.6684,1.6684,0,0,1,1,19.3335V17H3v2H5V11H7v8.3335A1.6684,1.6684,0,0,1,5.3335,21Z"/><rect id="_Transparent_Rectangle_" data-name="&lt;Transparent Rectangle&gt;" class="cls-1" width="32" height="32"/></svg>