<?xml version="1.0" encoding="utf-8"?>
<svg width="1259.2" height="298.4" version="1.0" xmlns="http://www.w3.org/2000/svg">
  <rect id="background" width="100%" height="100%" fill="none" />
  <g transform="translate(-51.097 -92.304)" stroke-linecap="square">
    <path id="emblem" d="m225.8 92.304-76.751 132.93c29.122-8.9782 60.452-10.309 90.821-3.146l25.939 6.1226-24.404 103.48-25.976-6.1224c-19.954-4.7072-40.754-0.043-56.841 12.674-8.0467 6.3645-14.386 14.355-18.731 23.319l-24.01-11.616c6.0744-12.545 14.955-23.736 26.172-32.616 22.439-17.761 51.695-24.284 79.549-17.712l12.165-51.574c-43.577-10.273-89.504-0.0432-124.61 27.744-35.106 27.785-55.611 70.142-55.611 114.91l344.58 0.01z" fill="#60a5fa" stroke-width="26.257" style="paint-order:markers fill stroke" />
    <path id="wordmark" d="m466.57 358.32v-202.64h85.68q20.944 0 35.904 7.072t22.848 20.4q7.888 13.056 7.888 31.824 0 13.328-7.344 25.568-7.344 11.968-24.208 20.128v-20.672q16.048 6.256 24.752 14.96t11.968 19.04q3.264 10.064 3.264 21.216 0 29.92-19.856 46.512t-55.216 16.592zm42.16-36.72h48.416q12.784 0 20.4-7.344t7.616-19.04q0-11.968-7.616-19.312t-20.4-7.344h-48.416zm0-89.76h46.512q9.792 0 15.504-5.44 5.984-5.712 5.984-14.96t-5.984-14.688q-5.712-5.712-15.504-5.712h-46.512zm147.94 126.48v-148.51h40.8v148.51zm0-161.84v-40.8h40.8v40.8zm146.56 165.1q-22.032 0-40.256-10.064-17.952-10.064-28.832-27.472-10.608-17.68-10.608-39.984 0-22.576 10.608-39.984 10.88-17.408 28.832-27.472 18.224-10.064 40.256-10.064t39.984 10.064 28.56 27.472q10.88 17.408 10.88 39.984 0 22.304-10.88 39.984-10.608 17.408-28.56 27.472t-39.984 10.064zm0-36.72q11.152 0 19.312-5.168 8.432-5.168 13.056-14.416 4.896-9.248 4.896-21.216t-4.896-20.944q-4.624-9.248-13.056-14.416-8.16-5.44-19.312-5.44t-19.584 5.44q-8.432 5.168-13.328 14.416-4.624 8.976-4.624 20.944t4.624 21.216q4.896 9.248 13.328 14.416t19.584 5.168zm105.49 33.456v-148.51h38.08v36.176l-4.08-5.984q3.264-17.136 15.776-25.296t29.92-8.16q18.496 0 32.368 9.52 14.144 9.248 17.68 25.024l-11.696 1.088q7.344-18.224 20.944-26.928t31.824-8.704q16.048 0 28.288 7.072 12.512 7.072 19.584 19.856 7.072 12.512 7.072 29.376v95.472h-40.8v-86.768q0-8.704-3.264-14.96-2.992-6.256-8.704-9.792t-13.872-3.536q-7.888 0-13.872 3.536-5.712 3.536-8.976 9.792-2.992 6.256-2.992 14.96v86.768h-40.8v-86.768q0-8.704-3.264-14.96-2.992-6.256-8.704-9.792t-13.872-3.536q-7.888 0-13.872 3.536-5.712 3.536-8.976 9.792-2.992 6.256-2.992 14.96v86.768zm329.64 3.264q-23.664 0-41.072-10.336-17.408-10.608-26.928-28.288t-9.52-39.168q0-22.304 9.792-39.712 10.064-17.408 26.928-27.472t38.08-10.064q17.68 0 31.28 5.712 13.6 5.44 22.848 15.504 9.52 10.064 14.416 23.392 4.896 13.056 4.896 28.56 0 4.352-0.544 8.704-0.272 4.08-1.36 7.072h-111.25v-29.92h88.128l-19.312 14.144q2.72-11.696-0.272-20.672-2.992-9.248-10.608-14.416-7.344-5.44-18.224-5.44-10.608 0-18.224 5.168t-11.424 15.232-2.992 24.48q-1.088 12.512 2.992 22.032t12.512 14.96q8.432 5.168 20.4 5.168 10.88 0 18.496-4.352 7.888-4.352 12.24-11.968l32.64 15.504q-4.352 10.88-13.872 19.04-9.248 8.16-22.032 12.784-12.784 4.352-28.016 4.352z" fill="#f6f6f9" stroke-width="68.489" style="font-feature-settings:'ss02';paint-order:markers stroke fill" aria-label="Biome" />
  </g>
</svg>