<?xml version="1.0" encoding="utf-8"?>
<svg width="1272.4" height="309.56" version="1.0" xmlns="http://www.w3.org/2000/svg">
 <rect id="background" width="100%" height="100%" fill="none" />
 <path id="emblem" d="m178.72 0-79.62 137.9c30.212-9.3141 62.713-10.695 94.218-3.2636l26.909 6.3516-25.317 107.35-26.947-6.3514c-20.7-4.8832-42.278-0.0447-58.966 13.148-8.3477 6.6025-14.924 14.892-19.431 24.191l-24.908-12.051c6.3013-13.015 15.514-24.623 27.151-33.835 23.278-18.425 53.628-25.193 82.527-18.374l12.62-53.502c-45.206-10.657-92.848-0.0447-129.27 28.782-36.418 28.824-57.691 72.765-57.691 119.21l357.46 6e-3z" fill="#60a5fa" stroke-linecap="square" stroke-width="27.239" style="paint-order:markers fill stroke" />
 <path id="slogan" d="m439.74 308.94v-31.722h-9.8286v-7.0204h27.562v7.0204h-9.6726v31.722zm50.485 0.62404q-4.3683 0-8.1125-1.5081t-6.5524-4.2122q-2.7562-2.7562-4.3163-6.3964-1.5601-3.6402-1.5601-7.9045 0-4.2642 1.5081-7.9045 1.5601-3.6402 4.3163-6.3444 2.8082-2.7042 6.5524-4.2122 3.7442-1.5081 8.1645-1.5081 4.4203 0 8.1645 1.5081t6.5004 4.2122q2.8082 2.7042 4.3163 6.3444 1.5601 3.6402 1.5601 7.9045 0 4.2643-1.5601 7.9045-1.5601 3.6402-4.3683 6.3964-2.7562 2.7042-6.5004 4.2122-3.7442 1.5081-8.1125 1.5081zm0-7.2804q2.6522 0 4.8883-0.93605 2.2881-0.93606 4.0042-2.6002 1.7161-1.7161 2.6522-4.0562 0.93606-2.3401 0.93606-5.1483 0-2.8082-0.93606-5.0963-0.93605-2.3401-2.6522-4.0562-1.7161-1.7161-4.0042-2.6002-2.2361-0.93605-4.8883-0.93605-2.6522 0-4.9403 0.93605-2.2361 0.88406-3.9522 2.6002-1.7161 1.7161-2.6522 4.0562-0.93606 2.2881-0.93606 5.0963 0 2.8082 0.93606 5.1483 0.93605 2.3401 2.6522 4.0562 1.7161 1.6641 3.9522 2.6002 2.2881 0.93605 4.9403 0.93605zm56.569 7.2804q-4.3683 0-8.1125-1.5081t-6.5524-4.2122q-2.7562-2.7562-4.3163-6.3964-1.5601-3.6402-1.5601-7.9045 0-4.2642 1.5081-7.9045 1.5601-3.6402 4.3163-6.3444 2.8082-2.7042 6.5524-4.2122 3.7442-1.5081 8.1645-1.5081 4.4203 0 8.1645 1.5081t6.5004 4.2122q2.8082 2.7042 4.3163 6.3444 1.5601 3.6402 1.5601 7.9045 0 4.2643-1.5601 7.9045-1.5601 3.6402-4.3683 6.3964-2.7562 2.7042-6.5004 4.2122-3.7442 1.5081-8.1125 1.5081zm0-7.2804q2.6522 0 4.8883-0.93605 2.2881-0.93606 4.0042-2.6002 1.7161-1.7161 2.6522-4.0562 0.93606-2.3401 0.93606-5.1483 0-2.8082-0.93606-5.0963-0.93605-2.3401-2.6522-4.0562-1.7161-1.7161-4.0042-2.6002-2.2361-0.93605-4.8883-0.93605-2.6522 0-4.9403 0.93605-2.2361 0.88406-3.9522 2.6002-1.7161 1.7161-2.6522 4.0562-0.93605 2.2881-0.93605 5.0963 0 2.8082 0.93605 5.1483 0.93606 2.3401 2.6522 4.0562 1.7161 1.6641 3.9522 2.6002 2.2881 0.93605 4.9403 0.93605zm37.172 6.6564v-38.742h8.0605v31.722h16.381v7.0204zm56.725 0.62404q-4.1602 0-7.7485-1.5081-3.5362-1.5081-6.1884-4.2122t-4.1602-6.3444q-1.4561-3.6402-1.4561-7.9565 0-4.3162 1.4561-7.9565 1.4561-3.6922 4.1082-6.3444 2.6522-2.7042 6.1884-4.1602 3.5882-1.5081 7.8005-1.5081t7.5404 1.4041q3.3802 1.4041 5.7203 3.7442t3.3282 5.2003l-7.1244 3.4322q-0.98806-2.8082-3.4842-4.6283-2.4442-1.8721-5.9804-1.8721-3.4322 0-6.0324 1.6121-2.6002 1.6121-4.0562 4.4723-1.4041 2.8082-1.4041 6.6044 0 3.7962 1.4041 6.6564 1.4561 2.8602 4.0562 4.4723 2.6002 1.6121 6.0324 1.6121 3.5362 0 5.9804-1.8201 2.4962-1.8721 3.4842-4.6803l7.1244 3.4322q-0.98806 2.8602-3.3282 5.2003t-5.7203 3.7442q-3.3282 1.4041-7.5404 1.4041zm32.647-0.62404v-38.742h8.0605v16.745h15.081v-16.745h8.0605v38.742h-8.0605v-14.977h-15.081v14.977zm46.116 0 13.105-38.742h10.713l13.105 38.742h-8.7885l-2.6002-7.9045h-14.197l-2.6002 7.9045zm13.573-14.925h9.7246l-5.9284-18.305h2.1841zm38.264 14.925v-38.742h8.0605v38.742zm25.835 0v-38.742h6.1884l20.801 27.406-3.3282 0.78005v-28.186h8.0605v38.742h-6.2404l-20.437-27.614 3.0162-0.78004v28.394zm89.164 0.62404q-4.3683 0-8.1125-1.5081-3.7442-1.5081-6.5524-4.2122-2.7562-2.7562-4.3162-6.3964-1.5601-3.6402-1.5601-7.9045 0-4.2642 1.5081-7.9045 1.5601-3.6402 4.3163-6.3444 2.8082-2.7042 6.5524-4.2122t8.1645-1.5081q4.4203 0 8.1645 1.5081 3.7442 1.5081 6.5004 4.2122 2.8082 2.7042 4.3163 6.3444 1.5601 3.6402 1.5601 7.9045 0 4.2643-1.5601 7.9045-1.5601 3.6402-4.3683 6.3964-2.7562 2.7042-6.5004 4.2122-3.7442 1.5081-8.1125 1.5081zm0-7.2804q2.6522 0 4.8883-0.93605 2.2881-0.93606 4.0042-2.6002 1.7161-1.7161 2.6522-4.0562 0.93605-2.3401 0.93605-5.1483 0-2.8082-0.93605-5.0963-0.93606-2.3401-2.6522-4.0562t-4.0042-2.6002q-2.2361-0.93605-4.8883-0.93605t-4.9403 0.93605q-2.2361 0.88406-3.9522 2.6002t-2.6522 4.0562q-0.93606 2.2881-0.93606 5.0963 0 2.8082 0.93606 5.1483t2.6522 4.0562q1.7161 1.6641 3.9522 2.6002 2.2881 0.93605 4.9403 0.93605zm37.172 6.6564v-38.742h26.522v7.0204h-18.461v9.8286h15.861v7.0204h-15.861v14.873zm68.675 0v-31.722h-9.8286v-7.0204h27.562v7.0204h-9.6726v31.722zm32.648 0v-38.742h8.0605v16.745h15.081v-16.745h8.0604v38.742h-8.0604v-14.977h-15.081v14.977zm48.976 0v-38.742h26.054v7.0204h-17.993v8.7885h16.953v7.0204h-16.953v8.8925h17.993v7.0204zm69.091 0-10.141-38.742h8.7365l7.6444 32.45h-2.3401l8.0605-32.45h8.3205l8.0605 32.45h-2.3402l7.6445-32.45h8.7365l-10.141 38.742h-9.3606l-8.1124-31.202h2.7041l-8.1125 31.202zm57.297 0v-38.742h26.054v7.0204h-17.993v8.7885h16.953v7.0204h-16.953v8.8925h17.993v7.0204zm41.54 0v-38.742h16.381q4.0043 0 6.8645 1.3521 2.8601 1.3521 4.3682 3.9002 1.5081 2.4962 1.5081 6.0844 0 2.5482-1.4041 4.8883-1.4041 2.2881-4.6283 3.8482v-3.9522q3.0682 1.1961 4.7323 2.8602t2.2882 3.6402q0.624 1.9241 0.624 4.0562 0 5.7203-3.7962 8.8925-3.7963 3.1722-10.557 3.1722zm8.0604-7.0204h9.2566q2.4441 0 3.9002-1.4041 1.4561-1.4041 1.4561-3.6402 0-2.2881-1.4561-3.6922-1.4561-1.4041-3.9002-1.4041h-9.2566zm0-17.161h8.8926q1.8721 0 2.9642-1.0401 1.144-1.0921 1.144-2.8602 0-1.7681-1.144-2.8082-1.0921-1.0921-2.9642-1.0921h-8.8926z" fill="#969696" stroke-width="72.406" style="font-feature-settings:'ss02';paint-order:markers stroke fill" aria-label="TOOLCHAIN OF THE WEB" />
 <path id="wordmark" d="m429.92 232.22v-202.64h85.68q20.944 0 35.904 7.072t22.848 20.4q7.888 13.056 7.888 31.824 0 13.328-7.344 25.568-7.344 11.968-24.208 20.128v-20.672q16.048 6.256 24.752 14.96t11.968 19.04q3.264 10.064 3.264 21.216 0 29.92-19.856 46.512t-55.216 16.592zm42.16-36.72h48.416q12.784 0 20.4-7.344t7.616-19.04q0-11.968-7.616-19.312t-20.4-7.344h-48.416zm0-89.76h46.512q9.792 0 15.504-5.44 5.984-5.712 5.984-14.96t-5.984-14.688q-5.712-5.712-15.504-5.712h-46.512zm147.94 126.48v-148.51h40.8v148.51zm0-161.84v-40.8h40.8v40.8zm146.56 165.1q-22.032 0-40.256-10.064-17.952-10.064-28.832-27.472-10.608-17.68-10.608-39.984 0-22.576 10.608-39.984 10.88-17.408 28.832-27.472 18.224-10.064 40.256-10.064t39.984 10.064q17.952 10.064 28.56 27.472 10.88 17.408 10.88 39.984 0 22.304-10.88 39.984-10.608 17.408-28.56 27.472t-39.984 10.064zm0-36.72q11.152 0 19.312-5.168 8.432-5.168 13.056-14.416 4.896-9.248 4.896-21.216t-4.896-20.944q-4.624-9.248-13.056-14.416-8.16-5.44-19.312-5.44t-19.584 5.44q-8.432 5.168-13.328 14.416-4.624 8.976-4.624 20.944t4.624 21.216q4.896 9.248 13.328 14.416t19.584 5.168zm105.49 33.456v-148.51h38.08v36.176l-4.08-5.984q3.264-17.136 15.776-25.296t29.92-8.16q18.496 0 32.368 9.52 14.144 9.248 17.68 25.024l-11.696 1.088q7.344-18.224 20.944-26.928 13.6-8.704 31.824-8.704 16.048 0 28.288 7.072 12.512 7.072 19.584 19.856 7.072 12.512 7.072 29.376v95.472h-40.8v-86.768q0-8.704-3.264-14.96-2.992-6.256-8.704-9.792t-13.872-3.536q-7.888 0-13.872 3.536-5.712 3.536-8.976 9.792-2.992 6.256-2.992 14.96v86.768h-40.8v-86.768q0-8.704-3.264-14.96-2.992-6.256-8.704-9.792t-13.872-3.536q-7.888 0-13.872 3.536-5.712 3.536-8.976 9.792-2.992 6.256-2.992 14.96v86.768zm329.64 3.264q-23.664 0-41.072-10.336-17.408-10.608-26.928-28.288t-9.52-39.168q0-22.304 9.792-39.712 10.064-17.408 26.928-27.472 16.864-10.064 38.08-10.064 17.68 0 31.28 5.712 13.6 5.44 22.848 15.504 9.52 10.064 14.416 23.392 4.896 13.056 4.896 28.56 0 4.352-0.544 8.704-0.272 4.08-1.36 7.072h-111.25v-29.92h88.128l-19.312 14.144q2.72-11.696-0.272-20.672-2.992-9.248-10.608-14.416-7.344-5.44-18.224-5.44-10.608 0-18.224 5.168t-11.424 15.232-2.992 24.48q-1.088 12.512 2.992 22.032t12.512 14.96q8.432 5.168 20.4 5.168 10.88 0 18.496-4.352 7.888-4.352 12.24-11.968l32.64 15.504q-4.352 10.88-13.872 19.04-9.248 8.16-22.032 12.784-12.784 4.352-28.016 4.352z" fill="#151515" stroke-linecap="square" stroke-width="68.489" style="font-feature-settings:'ss02';paint-order:markers stroke fill" aria-label="Biome" />
</svg>
