<svg width="16" height="16" viewBox="0 0 317 364" fill="none" xmlns="http://www.w3.org/2000/svg">
    <path d="M306.1 211.3C301.983 202.439 296.555 194.247 290 187L279.7 178C278 176.5 277.7 175 279.3 173.6C287.995 166.274 295.019 157.169 299.9 146.9C303.695 138.325 306.157 129.22 307.2 119.9C307.776 114.817 307.776 109.684 307.2 104.6C306.133 93.0671 304.933 85.4004 303.6 81.6004C302.733 78.1337 301.867 75.1337 301 72.6004C290 44.3004 264.7 25.3004 248.3 15.6004C243.265 13.1895 238.089 11.0856 232.8 9.30039C223.673 6.3488 214.303 4.20719 204.8 2.90039C197.791 1.72279 190.706 1.05438 183.6 0.900391H0.899902V84.4004H178.5C184.356 84.4151 190.193 85.0859 195.9 86.4004C203.5 88.0004 210 91.2004 213.6 98.6004C214.946 102.291 215.688 106.174 215.8 110.1V118.5C215.08 122.53 213.122 126.235 210.2 129.1C204.188 133.933 196.713 136.577 189 136.6C175.4 137.6 161.7 136.8 148 137H0.899902V364H84.3999C86.9999 364 87.3999 363 87.3999 360.6V225.1C87.3999 217.8 87.3999 217.8 94.5999 217.8H184.5C194.409 217.361 204.262 219.497 213.1 224C213.262 224.054 213.438 224.054 213.6 224L216.5 226.7C220.818 230.622 223.853 235.754 225.209 241.427C226.564 247.1 226.178 253.05 224.1 258.5C222.132 263.593 218.727 268.005 214.3 271.2C206.645 276.312 197.701 279.155 188.5 279.4C177.1 279.6 165.7 279.4 154.3 279.4C151.4 279.4 150.6 280.4 150.6 283V356.8C150.6 363.8 150.6 364.1 157.7 363.8C172.879 364.223 188.07 363.789 203.2 362.5C218.933 360.3 232.333 357.634 243.4 354.5C243.636 354.408 243.87 354.308 244.1 354.2C256.45 350.112 268.065 344.069 278.5 336.3C284.799 331.962 290.283 326.545 294.7 320.3C295.078 320.015 295.415 319.679 295.7 319.3C303.296 309.708 308.813 298.64 311.9 286.8C313.723 279.892 315.126 272.879 316.1 265.8C318.254 247.076 314.773 228.135 306.1 211.4V211.3Z"
          fill="#F7B911"/>
</svg>
